<svg width="512" height="512" viewBox="0 0 512 512" xmlns="http://www.w3.org/2000/svg">
  <!-- Background gradient -->
  <defs>
    <linearGradient id="bgGradient" x1="0%" y1="0%" x2="100%" y2="100%">
      <stop offset="0%" style="stop-color:#4F46E5;stop-opacity:1" />
      <stop offset="100%" style="stop-color:#7C3AED;stop-opacity:1" />
    </linearGradient>
    <linearGradient id="starGradient" x1="0%" y1="0%" x2="100%" y2="100%">
      <stop offset="0%" style="stop-color:#FCD34D;stop-opacity:1" />
      <stop offset="100%" style="stop-color:#F59E0B;stop-opacity:1" />
    </linearGradient>
  </defs>

  <!-- Background circle -->
  <circle cx="256" cy="256" r="240" fill="url(#bgGradient)"/>

  <!-- Code brackets -->
  <path d="M 180 200 L 140 256 L 180 312" stroke="#E0E7FF" stroke-width="20" fill="none" stroke-linecap="round" stroke-linejoin="round"/>
  <path d="M 332 200 L 372 256 L 332 312" stroke="#E0E7FF" stroke-width="20" fill="none" stroke-linecap="round" stroke-linejoin="round"/>

  <!-- Forward slash -->
  <path d="M 280 190 L 232 322" stroke="#E0E7FF" stroke-width="18" fill="none" stroke-linecap="round"/>

  <!-- Nova star burst -->
  <circle cx="380" cy="140" r="35" fill="url(#starGradient)"/>
  <path d="M 380 105 L 380 175 M 345 140 L 415 140 M 357 113 L 403 167 M 403 113 L 357 167"
        stroke="#FCD34D" stroke-width="4" stroke-linecap="round"/>

  <!-- AI circuit dots -->
  <circle cx="200" cy="380" r="8" fill="#10B981"/>
  <circle cx="240" cy="400" r="8" fill="#10B981"/>
  <circle cx="280" cy="390" r="8" fill="#10B981"/>
  <line x1="200" y1="380" x2="240" y2="400" stroke="#10B981" stroke-width="3"/>
  <line x1="240" y1="400" x2="280" y2="390" stroke="#10B981" stroke-width="3"/>
</svg>
