<svg width="512" height="512" viewBox="0 0 512 512" xmlns="http://www.w3.org/2000/svg">
  <!-- Background gradient -->
  <defs>
    <linearGradient id="opusBg" x1="0%" y1="0%" x2="100%" y2="100%">
      <stop offset="0%" style="stop-color:#1E293B;stop-opacity:1" />
      <stop offset="100%" style="stop-color:#0F172A;stop-opacity:1" />
    </linearGradient>
    <linearGradient id="recordGradient" x1="0%" y1="0%" x2="100%" y2="100%">
      <stop offset="0%" style="stop-color:#EF4444;stop-opacity:1" />
      <stop offset="100%" style="stop-color:#DC2626;stop-opacity:1" />
    </linearGradient>
    <linearGradient id="waveGradient" x1="0%" y1="0%" x2="100%" y2="0%">
      <stop offset="0%" style="stop-color:#3B82F6;stop-opacity:1" />
      <stop offset="100%" style="stop-color:#8B5CF6;stop-opacity:1" />
    </linearGradient>
  </defs>

  <!-- Background circle -->
  <circle cx="256" cy="256" r="240" fill="url(#opusBg)"/>

  <!-- Central recording circle -->
  <circle cx="256" cy="256" r="80" fill="url(#recordGradient)"/>
  <circle cx="256" cy="256" r="60" fill="#0F172A"/>
  <circle cx="256" cy="256" r="35" fill="url(#recordGradient)"/>

  <!-- Pulsing rings -->
  <circle cx="256" cy="256" r="110" stroke="#EF4444" stroke-width="3" fill="none" opacity="0.4"/>
  <circle cx="256" cy="256" r="140" stroke="#EF4444" stroke-width="2" fill="none" opacity="0.2"/>

  <!-- Sound waves (top and bottom) -->
  <path d="M 150 180 Q 180 160 210 180" stroke="url(#waveGradient)" stroke-width="6" fill="none" stroke-linecap="round"/>
  <path d="M 302 180 Q 332 160 362 180" stroke="url(#waveGradient)" stroke-width="6" fill="none" stroke-linecap="round"/>

  <path d="M 150 332 Q 180 352 210 332" stroke="url(#waveGradient)" stroke-width="6" fill="none" stroke-linecap="round"/>
  <path d="M 302 332 Q 332 352 362 332" stroke="url(#waveGradient)" stroke-width="6" fill="none" stroke-linecap="round"/>

  <!-- Connection nodes (collaboration) -->
  <circle cx="380" cy="256" r="12" fill="#10B981"/>
  <circle cx="420" cy="220" r="10" fill="#10B981"/>
  <circle cx="420" cy="292" r="10" fill="#10B981"/>
  <line x1="380" y1="256" x2="420" y2="220" stroke="#10B981" stroke-width="2.5" opacity="0.6"/>
  <line x1="380" y1="256" x2="420" y2="292" stroke="#10B981" stroke-width="2.5" opacity="0.6"/>

  <!-- Play triangle accent -->
  <path d="M 140 240 L 140 272 L 165 256 Z" fill="#3B82F6" opacity="0.8"/>
</svg>
